<svg viewBox="0 0 33 20" fill="none" xmlns="http://www.w3.org/2000/svg">
<g clip-path="url(#clip0_1_773)">
<path d="M12.3984 10.9672C13.9597 10.9569 15.2811 11.1509 16.3612 12.1079C16.5528 12.2769 16.7233 12.2284 16.9194 12.1064C18.265 11.2729 19.7599 11.1421 21.3121 11.1701C23.8132 11.2156 26.2268 11.8506 28.6917 12.1299C29.627 12.2357 30.5623 12.3151 31.5051 12.3298C32.8929 12.3504 33.3666 13.1441 32.7043 14.3377C30.7991 17.7729 27.7957 19.5029 23.8268 19.4912C21.1311 19.4838 18.8095 18.427 16.948 16.5014C16.6388 16.1824 16.4819 16.1765 16.1681 16.4985C12.1284 20.6583 4.93282 20.5863 1.14648 15.6959C0.770858 15.2108 0.448039 14.6905 0.187068 14.1407C-0.292636 13.125 0.173492 12.3739 1.329 12.3372C2.34574 12.3048 3.35643 12.2357 4.36713 12.1108C6.10643 11.8962 7.80953 11.4905 9.5428 11.2494C10.5475 11.1098 11.5506 10.9407 12.3984 10.9657V10.9672Z" fill="#29B69A"/>
<path d="M7.81256 8.62123C5.48041 8.62123 3.63853 6.84412 3.62797 4.58487C3.61741 2.33151 5.51209 0.497064 7.84575 0.500004C10.1628 0.502943 12.0137 2.30358 12.0228 4.56135C12.0303 6.83824 10.1809 8.6227 7.81256 8.6227V8.62123Z" fill="#29B69A"/>
<path d="M25.1723 8.62123C22.8131 8.62123 20.9455 6.80737 20.9772 4.54665C21.0074 2.27712 22.8462 0.5 25.1663 0.5C27.497 0.5 29.4173 2.34767 29.366 4.59957C29.3041 7.28655 26.981 8.77704 25.1723 8.62123Z" fill="#29B69A"/>
</g>
<defs>
<clipPath id="clip0_1_773">
<rect width="33" height="19" fill="white" transform="translate(0 0.5)"/>
</clipPath>
</defs>
</svg>
