<svg width="67" height="16" viewBox="0 0 67 16" fill="none" xmlns="http://www.w3.org/2000/svg">
<path d="M63.9434 7.61103C63.8758 7.20735 63.6835 6.89455 63.3665 6.67249C63.0493 6.45042 62.6411 6.33946 62.1418 6.33946C61.8179 6.33946 61.5277 6.38656 61.2713 6.48076C61.015 6.56818 60.8091 6.69936 60.6539 6.87433C60.5055 7.0425 60.4313 7.23423 60.4313 7.4495C60.4245 7.70509 60.5324 7.92715 60.7552 8.11555C60.9846 8.30382 61.3489 8.44858 61.8482 8.54943L63.8321 8.95311C64.8982 9.16838 65.691 9.5215 66.2105 10.0127C66.7368 10.497 67 11.1327 67 11.9199C67 12.633 66.7942 13.262 66.3825 13.8069C65.9778 14.3451 65.4076 14.7656 64.6721 15.0684C63.9434 15.3711 63.0932 15.5225 62.1215 15.5225C61.1431 15.5225 60.2964 15.3845 59.5811 15.1087C58.8726 14.8261 58.3125 14.4292 57.901 13.9179C57.4893 13.3999 57.2431 12.7843 57.1621 12.0713H60.1681C60.2558 12.4884 60.465 12.8078 60.7956 13.0299C61.133 13.2452 61.5784 13.3528 62.1317 13.3528C62.4893 13.3528 62.8031 13.3091 63.0729 13.2216C63.3495 13.1342 63.5621 13.0064 63.7105 12.8382C63.8657 12.6632 63.9434 12.4614 63.9434 12.2327C63.9434 11.9368 63.8219 11.6979 63.5791 11.5162C63.3429 11.3346 62.9684 11.1933 62.4556 11.0924L60.6337 10.7291C59.5811 10.5206 58.7848 10.1539 58.245 9.62914C57.712 9.10439 57.4489 8.43847 57.4557 7.63112C57.4557 6.93154 57.6445 6.32602 58.0224 5.81471C58.4002 5.29674 58.9367 4.89985 59.6317 4.62404C60.3335 4.34809 61.1566 4.21025 62.1013 4.21025C63.019 4.21025 63.8186 4.34809 64.5 4.62404C65.1815 4.89985 65.7146 5.29342 66.0992 5.8046C66.4838 6.31591 66.6997 6.9181 66.747 7.61103H63.9434Z" fill="white"/>
<path d="M56.5693 6.59173H49.9905V4.35155H56.5693V6.59173ZM54.5046 1.72779V11.9401C54.5046 12.2226 54.545 12.4446 54.626 12.6061C54.7137 12.7609 54.8318 12.8718 54.9803 12.939C55.1355 12.9997 55.3244 13.0332 55.5471 13.04C55.8305 13.0467 56.2218 13.0299 56.7212 12.9896V15.3508C56.269 15.4248 55.7462 15.4619 55.1524 15.4619C54.4101 15.4619 53.7657 15.3508 53.2192 15.1289C52.6726 14.9002 52.2476 14.5537 51.9439 14.0895C51.6403 13.6253 51.4919 13.0467 51.4986 12.3537V1.72779H54.5046Z" fill="white"/>
<path d="M44.5911 15.5225C43.4846 15.5225 42.5196 15.2936 41.6965 14.8362C40.8801 14.3788 40.2492 13.7262 39.8038 12.8785C39.3652 12.0308 39.1459 11.0352 39.1459 9.89151C39.1459 8.76138 39.3652 7.76909 39.8038 6.91464C40.2492 6.05354 40.8733 5.38749 41.6762 4.91662C42.4792 4.44575 43.4104 4.21025 44.4697 4.21025C45.4616 4.21025 46.3456 4.41874 47.1215 4.83586C47.8975 5.24632 48.5081 5.8686 48.9534 6.70269C49.3987 7.53692 49.6215 8.55622 49.6215 9.76033V10.5979H40.3706V8.73104H46.7976C46.7976 8.28706 46.6998 7.89349 46.5041 7.55035C46.3085 7.20056 46.0385 6.92808 45.6944 6.73302C45.3503 6.53797 44.9589 6.44045 44.5203 6.44045C44.0548 6.44045 43.6398 6.54808 43.2755 6.76336C42.911 6.97185 42.6243 7.2611 42.4151 7.63112C42.2127 8.00113 42.1081 8.40481 42.1014 8.84214V10.5979C42.1014 11.1429 42.2059 11.6205 42.4151 12.0308C42.6243 12.4413 42.9178 12.7541 43.2956 12.9694C43.6802 13.1846 44.1255 13.2923 44.6317 13.2923C44.9691 13.2923 45.276 13.2452 45.5528 13.151C45.8294 13.0501 46.0621 12.9223 46.2511 12.7675C46.4467 12.6061 46.5953 12.4177 46.6964 12.2025H49.5506C49.4089 12.8685 49.1154 13.4538 48.6701 13.9583C48.2315 14.4561 47.6614 14.843 46.9596 15.1188C46.2646 15.3878 45.4751 15.5225 44.5911 15.5225Z" fill="white"/>
<path d="M33.3103 15.5225C32.2037 15.5225 31.2389 15.2936 30.4156 14.8362C29.5992 14.3788 28.9683 13.7262 28.5229 12.8785C28.0843 12.0308 27.865 11.0352 27.865 9.89151C27.865 8.76138 28.0843 7.76909 28.5229 6.91464C28.9683 6.05354 29.5924 5.38749 30.3954 4.91662C31.1983 4.44575 32.1295 4.21025 33.1888 4.21025C34.1807 4.21025 35.0647 4.41874 35.8407 4.83586C36.6166 5.24632 37.2272 5.8686 37.6725 6.70269C38.118 7.53692 38.3406 8.55622 38.3406 9.76033V10.5979H29.0897V8.73104H35.5167C35.5167 8.28706 35.4189 7.89349 35.2232 7.55035C35.0276 7.20056 34.7576 6.92808 34.4135 6.73302C34.0694 6.53797 33.678 6.44045 33.2394 6.44045C32.7739 6.44045 32.3589 6.54808 31.9946 6.76336C31.6301 6.97185 31.3434 7.2611 31.1343 7.63112C30.9318 8.00113 30.8272 8.40481 30.8205 8.84214V10.5979C30.8205 11.1429 30.925 11.6205 31.1343 12.0308C31.3434 12.4413 31.637 12.7541 32.0147 12.9694C32.3993 13.1846 32.8448 13.2923 33.3508 13.2923C33.6882 13.2923 33.9952 13.2452 34.2719 13.151C34.5485 13.0501 34.7813 12.9223 34.9702 12.7675C35.1659 12.6061 35.3144 12.4177 35.4155 12.2025H38.2697C38.128 12.8685 37.8345 13.4538 37.3892 13.9583C36.9506 14.4561 36.3805 14.843 35.6787 15.1188C34.9837 15.3878 34.1942 15.5225 33.3103 15.5225Z" fill="white"/>
<path d="M17.9018 0.698516H20.9382V12.8078H27.2437V15.3105H17.9018V0.698516Z" fill="white"/>
<path d="M2.70236 0L6.25074 0.623875L3.54829 15.9844L0 15.3607L2.70236 0Z" fill="white"/>
<path d="M11.0458 16L11.6463 12.5572C11.0458 11.7589 8.64373 10.6612 6.54193 10.9606C5.44098 11.1173 3.68948 12.2077 3.38922 14.0041L3.08896 15.9999C4.08982 15.4011 4.44012 15.0853 6.54193 14.8522C7.89949 14.7016 9.84476 15.1515 11.0458 16Z" fill="white"/>
</svg>
