<svg width="522" height="434" viewBox="0 0 522 434" fill="none" xmlns="http://www.w3.org/2000/svg">
<rect x="411.14" y="0.100098" width="12.6535" height="412.082" transform="rotate(30 411.14 0.100098)" fill="white"/>
<g filter="url(#filter0_b_107_699)">
<path d="M195.05 50.4386L163.618 44.2041C159.823 43.4512 160.075 37.9421 163.923 37.5384L400.619 12.7099C407.159 12.0238 413.397 15.6256 416.073 21.6324L512.919 239.031C514.493 242.566 509.848 245.538 507.298 242.628L486.183 218.524C476.378 207.331 463.147 199.692 448.551 196.797L417.754 190.689C403.157 187.793 389.927 180.155 380.122 168.962L359.433 145.345C349.627 134.152 336.397 126.513 321.801 123.618L291.003 117.509C276.407 114.614 263.177 106.976 253.371 95.7823L232.683 72.1656C222.877 60.9723 209.647 53.3338 195.05 50.4386Z" fill="#3685FC" fill-opacity="0.8"/>
<path d="M195.05 50.4386L163.618 44.2041C159.823 43.4512 160.075 37.9421 163.923 37.5384L400.619 12.7099C407.159 12.0238 413.397 15.6256 416.073 21.6324L512.919 239.031C514.493 242.566 509.848 245.538 507.298 242.628L486.183 218.524C476.378 207.331 463.147 199.692 448.551 196.797L417.754 190.689C403.157 187.793 389.927 180.155 380.122 168.962L359.433 145.345C349.627 134.152 336.397 126.513 321.801 123.618L291.003 117.509C276.407 114.614 263.177 106.976 253.371 95.7823L232.683 72.1656C222.877 60.9723 209.647 53.3338 195.05 50.4386Z" fill="url(#paint0_linear_107_699)"/>
<path d="M195.05 50.4386L163.618 44.2041C159.823 43.4512 160.075 37.9421 163.923 37.5384L400.619 12.7099C407.159 12.0238 413.397 15.6256 416.073 21.6324L512.919 239.031C514.493 242.566 509.848 245.538 507.298 242.628L486.183 218.524C476.378 207.331 463.147 199.692 448.551 196.797L417.754 190.689C403.157 187.793 389.927 180.155 380.122 168.962L359.433 145.345C349.627 134.152 336.397 126.513 321.801 123.618L291.003 117.509C276.407 114.614 263.177 106.976 253.371 95.7823L232.683 72.1656C222.877 60.9723 209.647 53.3338 195.05 50.4386Z" stroke="#3685FC" stroke-width="0.8"/>
</g>
<path d="M368.9 433.7C374.202 433.7 378.543 429.394 378.091 424.112C376.871 409.849 372.936 395.823 366.412 382.574C358.432 366.364 346.735 351.637 331.989 339.231C317.243 326.825 299.737 316.984 280.471 310.27C261.204 303.556 240.554 300.1 219.7 300.1C198.846 300.1 178.197 303.556 158.93 310.27C139.664 316.984 122.158 326.825 107.412 339.231C92.6659 351.637 80.9688 366.365 72.9883 382.574C66.4652 395.823 62.5297 409.849 61.3099 424.112C60.8581 429.394 65.1985 433.7 70.5004 433.7L368.9 433.7Z" fill="#10DAB2"/>
<rect x="0.0996094" y="203.028" width="134.905" height="87.0353" rx="43.5176" fill="white"/>
<path d="M110.191 279.185H71.3604L114.878 301.487L110.191 279.185Z" fill="white"/>
<rect width="114.649" height="73.9669" rx="36.9835" transform="matrix(-1 0 0 1 249.7 146.5)" fill="white"/>
<path d="M156.139 211.221H189.14L152.156 230.175L156.139 211.221Z" fill="white"/>
<path d="M28.6641 247.29L29.8475 236.366L21.12 242.831L18.0137 237.481L28.0724 233.245L18.0876 229.158L20.9721 223.957L29.9215 230.421L28.6641 219.424H34.581L33.3237 230.421L42.199 223.957L45.0096 229.084L35.0248 233.32L45.0835 237.481L42.0511 242.757L33.3237 236.366L34.5071 247.29H28.6641Z" fill="#3685FC"/>
<path d="M72.0555 247.289L73.2388 236.366L64.5114 242.831L61.405 237.481L71.4638 233.245L61.479 229.158L64.3635 223.956L73.3128 230.421L72.0555 219.423H77.9724L76.715 230.421L85.5904 223.956L88.4009 229.084L78.4161 233.319L88.4749 237.481L85.4425 242.756L76.715 236.366L77.8984 247.289H72.0555Z" fill="#3685FC"/>
<circle cx="54.2397" cy="245.299" r="2.7866" fill="#3685FC"/>
<path d="M205.341 198.649C204.236 198.649 203.316 198.301 202.58 197.604C201.881 196.871 201.531 196.01 201.531 195.02C201.531 193.993 201.881 193.132 202.58 192.435C203.316 191.702 204.236 191.336 205.341 191.336C206.445 191.336 207.347 191.702 208.046 192.435C208.745 193.132 209.095 193.993 209.095 195.02C209.095 196.01 208.745 196.871 208.046 197.604C207.347 198.301 206.445 198.649 205.341 198.649ZM205.341 177.698C204.236 177.698 203.316 177.35 202.58 176.654C201.881 175.92 201.531 175.059 201.531 174.069C201.531 173.043 201.881 172.181 202.58 171.485C203.316 170.752 204.236 170.385 205.341 170.385C206.445 170.385 207.347 170.752 208.046 171.485C208.745 172.181 209.095 173.043 209.095 174.069C209.095 175.059 208.745 175.92 208.046 176.654C207.347 177.35 206.445 177.698 205.341 177.698Z" fill="#3685FC"/>
<path d="M215.066 209.795V209.246C218.356 205.838 221.005 201.935 223.015 197.538C225.025 193.141 226.03 188.469 226.03 183.522C226.03 178.575 225.025 173.903 223.015 169.505C221.042 165.108 218.41 161.206 215.121 157.798V157.248H220.932C222.942 159.227 224.769 161.554 226.414 164.229C228.058 166.867 229.356 169.817 230.306 173.078C231.293 176.303 231.786 179.784 231.786 183.522C231.786 187.259 231.293 190.759 230.306 194.02C229.356 197.245 228.058 200.176 226.414 202.815C224.769 205.49 222.942 207.817 220.932 209.795H215.066Z" fill="#3685FC"/>
<defs>
<filter id="filter0_b_107_699" x="155.918" y="7.64452" width="362.304" height="241.147" filterUnits="userSpaceOnUse" color-interpolation-filters="sRGB">
<feFlood flood-opacity="0" result="BackgroundImageFix"/>
<feGaussianBlur in="BackgroundImageFix" stdDeviation="2.29101"/>
<feComposite in2="SourceAlpha" operator="in" result="effect1_backgroundBlur_107_699"/>
<feBlend mode="normal" in="SourceGraphic" in2="effect1_backgroundBlur_107_699" result="shape"/>
</filter>
<linearGradient id="paint0_linear_107_699" x1="337.069" y1="12.6266" x2="337.069" y2="243.806" gradientUnits="userSpaceOnUse">
<stop stop-color="#5196FC"/>
<stop offset="1" stop-color="#3685FC" stop-opacity="0"/>
</linearGradient>
</defs>
</svg>
