<svg width="522" height="384" viewBox="0 0 522 384" fill="none" xmlns="http://www.w3.org/2000/svg">
<g filter="url(#filter0_i_127_1631)">
<path d="M519.018 108.797C520.132 97.9254 511.601 88.4756 500.673 88.4756H367.792C362.678 88.4756 358.026 91.4353 355.86 96.0675L346.652 115.755C340.153 129.651 326.198 138.53 310.857 138.53H151.16C142.12 138.53 134.413 145.082 132.959 154.004L99.4554 359.492C97.6259 370.713 106.287 380.9 117.656 380.9H474.485C483.942 380.9 491.866 373.747 492.831 364.339L519.018 108.797Z" fill="#075142"/>
</g>
<path d="M248.52 81.0533C249.208 78.4329 252.928 78.4329 253.616 81.0533L264.848 123.819C265.291 125.505 267.22 126.304 268.725 125.425L306.907 103.127C309.247 101.761 311.877 104.391 310.511 106.731L288.213 144.913C287.334 146.418 288.133 148.347 289.818 148.79L332.585 160.022C335.205 160.71 335.205 164.429 332.585 165.118L289.818 176.35C288.133 176.792 287.334 178.721 288.213 180.226L310.511 218.409C311.877 220.748 309.247 223.378 306.907 222.012L268.725 199.714C267.22 198.835 265.291 199.634 264.848 201.32L253.616 244.086C252.928 246.706 249.208 246.706 248.52 244.086L237.288 201.32C236.845 199.634 234.917 198.835 233.412 199.714L195.229 222.012C192.89 223.378 190.259 220.748 191.626 218.409L213.924 180.226C214.803 178.721 214.004 176.792 212.318 176.35L169.552 165.118C166.931 164.429 166.931 160.71 169.552 160.022L212.318 148.79C214.004 148.347 214.803 146.418 213.924 144.913L191.626 106.731C190.259 104.391 192.89 101.761 195.229 103.127L233.412 125.425C234.917 126.304 236.845 125.505 237.288 123.819L248.52 81.0533Z" fill="white"/>
<path d="M331.765 233.6C337.402 227.388 347.17 227.388 352.807 233.6C356.719 237.91 362.789 239.54 368.333 237.768C376.306 235.219 384.757 240.139 386.539 248.321C387.779 254.011 392.225 258.491 397.915 259.74C406.099 261.537 410.96 270.024 408.426 278.014C406.663 283.572 408.279 289.676 412.582 293.613C418.784 299.286 418.784 309.057 412.582 314.73C408.279 318.666 406.663 324.771 408.426 330.329C410.96 338.319 406.099 346.806 397.915 348.603C392.225 349.852 387.779 354.331 386.539 360.022C384.757 368.204 376.306 373.124 368.333 370.575C362.789 368.803 356.719 370.433 352.807 374.743C347.17 380.955 337.402 380.955 331.765 374.743C327.853 370.433 321.783 368.803 316.239 370.575C308.266 373.124 299.815 368.204 298.033 360.022C296.793 354.331 292.347 349.852 286.657 348.603C278.473 346.806 273.612 338.319 276.146 330.329C277.909 324.771 276.293 318.666 271.99 314.73C265.788 309.057 265.788 299.286 271.99 293.613C276.293 289.676 277.909 283.572 276.146 278.014C273.612 270.024 278.473 261.537 286.657 259.74C292.347 258.491 296.793 254.011 298.033 248.321C299.815 240.139 308.266 235.219 316.239 237.768C321.783 239.54 327.853 237.91 331.765 233.6Z" fill="white" stroke="white" stroke-width="0.658614"/>
<path d="M351.239 83.1137L467.712 184.852L320.717 234.721L351.239 83.1137Z" fill="white"/>
<rect x="133.176" y="246.872" width="132.381" height="133.04" fill="white" stroke="white" stroke-width="0.658614"/>
<g filter="url(#filter1_bi_127_1631)">
<path d="M439.814 123.637C438.058 115.055 430.507 108.892 421.747 108.892H289.085C281.866 108.892 276.461 115.513 277.908 122.586C281.379 139.561 268.409 155.452 251.082 155.452H73.7727C62.1029 155.452 53.3674 166.155 55.7054 177.588L94.2661 366.153C96.0213 374.736 103.573 380.9 112.333 380.9H469.854C481.524 380.9 490.26 370.196 487.921 358.762L439.814 123.637Z" fill="#14AA8C" fill-opacity="0.6"/>
<path d="M421.747 109.221C430.351 109.221 437.767 115.274 439.492 123.703L487.598 358.828C489.896 370.058 481.316 380.57 469.854 380.57H112.333C103.729 380.57 96.3126 374.517 94.5887 366.087L56.028 177.522C53.7317 166.293 62.3113 155.781 73.7727 155.781H251.082C268.617 155.781 281.743 139.7 278.23 122.52C276.826 115.651 282.074 109.221 289.085 109.221H421.747Z" stroke="url(#paint0_linear_127_1631)" stroke-width="0.658614"/>
</g>
<rect x="3.1001" y="4.83105" width="163.336" height="105.378" rx="52.6891" fill="white"/>
<path d="M136.394 97.0374H89.3787L142.068 124.041L136.394 97.0374Z" fill="white"/>
<path d="M84.1123 19.0606C84.187 18.2646 85.349 18.2646 85.4238 19.0606L88.1801 48.4201C88.2296 48.9468 88.8486 49.2032 89.256 48.8657L111.965 30.0545C112.581 29.5445 113.403 30.3661 112.893 30.9819L94.0815 53.6912C93.744 54.0986 94.0004 54.7176 94.5271 54.767L123.887 57.5234C124.683 57.5982 124.683 58.7602 123.887 58.8349L94.5271 61.5913C94.0004 61.6407 93.744 62.2597 94.0815 62.6672L112.893 85.3765C113.403 85.9922 112.581 86.8139 111.965 86.3038L89.256 67.4926C88.8486 67.1551 88.2296 67.4115 88.1801 67.9383L85.4238 97.2977C85.349 98.0938 84.187 98.0938 84.1123 97.2977L81.3559 67.9383C81.3065 67.4115 80.6875 67.1551 80.28 67.4926L57.5707 86.3038C56.955 86.8139 56.1333 85.9922 56.6434 85.3765L75.4546 62.6672C75.7921 62.2597 75.5357 61.6407 75.0089 61.5913L45.6495 58.8349C44.8534 58.7602 44.8534 57.5982 45.6495 57.5234L75.0089 54.767C75.5357 54.7176 75.7921 54.0986 75.4546 53.6912L56.6434 30.9819C56.1333 30.3661 56.955 29.5445 57.5707 30.0545L80.28 48.8657C80.6875 49.2032 81.3065 48.9468 81.3559 48.4201L84.1123 19.0606Z" fill="#10DAB2"/>
<defs>
<filter id="filter0_i_127_1631" x="99.2107" y="88.4756" width="419.905" height="384.631" filterUnits="userSpaceOnUse" color-interpolation-filters="sRGB">
<feFlood flood-opacity="0" result="BackgroundImageFix"/>
<feBlend mode="normal" in="SourceGraphic" in2="BackgroundImageFix" result="shape"/>
<feColorMatrix in="SourceAlpha" type="matrix" values="0 0 0 0 0 0 0 0 0 0 0 0 0 0 0 0 0 0 127 0" result="hardAlpha"/>
<feOffset dy="184.412"/>
<feGaussianBlur stdDeviation="46.103"/>
<feComposite in2="hardAlpha" operator="arithmetic" k2="-1" k3="1"/>
<feColorMatrix type="matrix" values="0 0 0 0 0.23941 0 0 0 0 0.820833 0 0 0 0 0.707385 0 0 0 1 0"/>
<feBlend mode="normal" in2="shape" result="effect1_innerShadow_127_1631"/>
</filter>
<filter id="filter1_bi_127_1631" x="47.4216" y="100.989" width="448.783" height="364.214" filterUnits="userSpaceOnUse" color-interpolation-filters="sRGB">
<feFlood flood-opacity="0" result="BackgroundImageFix"/>
<feGaussianBlur in="BackgroundImageFix" stdDeviation="3.95168"/>
<feComposite in2="SourceAlpha" operator="in" result="effect1_backgroundBlur_127_1631"/>
<feBlend mode="normal" in="SourceGraphic" in2="effect1_backgroundBlur_127_1631" result="shape"/>
<feColorMatrix in="SourceAlpha" type="matrix" values="0 0 0 0 0 0 0 0 0 0 0 0 0 0 0 0 0 0 127 0" result="hardAlpha"/>
<feOffset dy="84.3026"/>
<feGaussianBlur stdDeviation="46.103"/>
<feComposite in2="hardAlpha" operator="arithmetic" k2="-1" k3="1"/>
<feColorMatrix type="matrix" values="0 0 0 0 0.458824 0 0 0 0 0.941176 0 0 0 0 0.847059 0 0 0 0.8 0"/>
<feBlend mode="normal" in2="shape" result="effect2_innerShadow_127_1631"/>
</filter>
<linearGradient id="paint0_linear_127_1631" x1="271.814" y1="108.892" x2="271.814" y2="380.9" gradientUnits="userSpaceOnUse">
<stop stop-color="#75F0D8"/>
<stop offset="1" stop-color="#75F0D8" stop-opacity="0.3"/>
</linearGradient>
</defs>
</svg>
