<svg width="16" height="16" viewBox="0 0 12 10" fill="none" xmlns="http://www.w3.org/2000/svg">
<path d="M4.36 9.09805L0.639998 5.37138C0.515831 5.24648 0.446136 5.07751 0.446136 4.90138C0.446136 4.72526 0.515831 4.55629 0.639998 4.43138L4.36 0.704718C4.45325 0.610698 4.57238 0.546578 4.70221 0.520532C4.83204 0.494485 4.96669 0.507693 5.08899 0.558471C5.21128 0.609248 5.31569 0.695296 5.38889 0.805642C5.46209 0.915989 5.50077 1.04563 5.5 1.17805V8.62472C5.50077 8.75713 5.46209 8.88678 5.38889 8.99713C5.31569 9.10747 5.21128 9.19352 5.08899 9.2443C4.96669 9.29508 4.83204 9.30828 4.70221 9.28224C4.57238 9.25619 4.45325 9.19207 4.36 9.09805Z" fill="#4A93FF"/>
<path d="M10.4138 9.29526L6.69383 5.56859C6.56966 5.44368 6.49997 5.27471 6.49997 5.09859C6.49997 4.92247 6.56966 4.7535 6.69383 4.62859L10.4138 0.901922C10.5071 0.807903 10.6262 0.743783 10.756 0.717736C10.8859 0.69169 11.0205 0.704897 11.1428 0.755675C11.2651 0.806453 11.3695 0.8925 11.4427 1.00285C11.5159 1.11319 11.5546 1.24284 11.5538 1.37526V8.82192C11.5546 8.95434 11.5159 9.08399 11.4427 9.19433C11.3695 9.30468 11.2651 9.39072 11.1428 9.4415C11.0205 9.49228 10.8859 9.50549 10.756 9.47944C10.6262 9.4534 10.5071 9.38928 10.4138 9.29526Z" fill="#4A93FF"/>
</svg>
