<svg width="16" height="16" viewBox="0 0 12 9" fill="none" xmlns="http://www.w3.org/2000/svg">
<path d="M7.19383 0.394441L10.9138 4.12111C11.038 4.24602 11.1077 4.41498 11.1077 4.59111C11.1077 4.76723 11.038 4.9362 10.9138 5.06111L7.19383 8.78777C7.10059 8.88179 6.98145 8.94591 6.85162 8.97196C6.72179 8.99801 6.58714 8.9848 6.46485 8.93402C6.34255 8.88324 6.23815 8.7972 6.16495 8.68685C6.09175 8.5765 6.05306 8.44686 6.05383 8.31444L6.05383 0.867775C6.05306 0.735359 6.09175 0.605712 6.16495 0.495366C6.23815 0.385019 6.34255 0.298973 6.46485 0.248195C6.58714 0.197417 6.72179 0.184209 6.85162 0.210255C6.98145 0.236301 7.10059 0.300422 7.19383 0.394441Z" fill="#4A93FF"/>
<path d="M1.14 0.197237L4.86 3.9239C4.98417 4.04881 5.05386 4.21778 5.05386 4.3939C5.05386 4.57003 4.98417 4.73899 4.86 4.8639L1.14 8.59057C1.04675 8.68459 0.927621 8.74871 0.797789 8.77476C0.667957 8.8008 0.53331 8.7876 0.411014 8.73682C0.288718 8.68604 0.184315 8.59999 0.111114 8.48965C0.0379134 8.3793 -0.000768031 8.24965 2.03298e-06 8.11724L2.03298e-06 0.67057C-0.000768031 0.538154 0.0379134 0.408507 0.111114 0.298161C0.184315 0.187814 0.288718 0.101768 0.411014 0.0509901C0.53331 0.000212256 0.667957 -0.0129964 0.797789 0.0130501C0.927621 0.0390965 1.04675 0.103218 1.14 0.197237Z" fill="#4A93FF"/>
</svg>
