<svg width="522" height="455" viewBox="0 0 522 455" fill="none" xmlns="http://www.w3.org/2000/svg">
<g filter="url(#filter0_i_127_1803)">
<path d="M312.827 337.019C313.674 333.112 318.434 331.586 321.394 334.274L402.58 407.962C405.541 410.65 404.482 415.534 400.675 416.755L296.265 450.219C292.458 451.44 288.757 448.081 289.604 444.173L312.827 337.019Z" fill="black"/>
</g>
<path d="M313.145 337.088C313.939 333.425 318.401 331.995 321.176 334.514L402.362 408.203C405.138 410.722 404.145 415.301 400.576 416.445L296.166 449.91C292.597 451.054 289.127 447.905 289.921 444.242L313.145 337.088Z" stroke="#5B1CE5" stroke-width="0.649246"/>
<g filter="url(#filter1_i_127_1803)">
<path d="M442.17 227.466C444.104 223.712 449.471 223.712 451.404 227.466L462.066 248.161C463.228 250.416 465.85 251.502 468.266 250.729L490.439 243.635C494.461 242.348 498.256 246.143 496.969 250.164L489.875 272.337C489.101 274.754 490.187 277.375 492.443 278.537L513.138 289.199C516.891 291.133 516.891 296.5 513.138 298.434L492.443 309.096C490.187 310.258 489.101 312.879 489.875 315.296L496.969 337.469C498.256 341.49 494.461 345.285 490.439 343.998L468.266 336.904C465.85 336.131 463.228 337.217 462.066 339.472L451.404 360.167C449.471 363.921 444.104 363.921 442.17 360.167L431.508 339.472C430.346 337.217 427.724 336.131 425.308 336.904L403.135 343.998C399.113 345.285 395.319 341.49 396.605 337.469L403.7 315.296C404.473 312.879 403.387 310.258 401.132 309.096L380.437 298.434C376.683 296.5 376.683 291.133 380.437 289.199L401.132 278.537C403.387 277.375 404.473 274.754 403.7 272.337L396.605 250.164C395.319 246.143 399.113 242.348 403.135 243.635L425.308 250.729C427.724 251.502 430.346 250.416 431.508 248.161L442.17 227.466Z" fill="black"/>
</g>
<path d="M442.459 227.615C444.271 224.096 449.303 224.096 451.116 227.615L461.778 248.31C463.012 250.706 465.798 251.86 468.365 251.038L490.538 243.944C494.308 242.738 497.866 246.295 496.66 250.065L489.565 272.238C488.744 274.806 489.898 277.591 492.294 278.826L512.989 289.488C516.508 291.301 516.508 296.332 512.989 298.145L492.294 308.807C489.898 310.042 488.744 312.827 489.565 315.395L496.66 337.567C497.866 341.338 494.308 344.895 490.538 343.689L468.365 336.595C465.798 335.773 463.012 336.927 461.778 339.323L451.116 360.018C449.303 363.537 444.271 363.537 442.459 360.018L431.796 339.323C430.562 336.927 427.777 335.773 425.209 336.595L403.036 343.689C399.266 344.895 395.708 341.338 396.915 337.567L404.009 315.395C404.83 312.827 403.677 310.042 401.28 308.807L380.585 298.145C377.066 296.332 377.066 291.301 380.585 289.488L401.28 278.826C403.677 277.591 404.83 274.806 404.009 272.238L396.915 250.065C395.708 246.295 399.266 242.738 403.036 243.944L425.209 251.038C427.777 251.86 430.562 250.706 431.796 248.31L442.459 227.615Z" stroke="#B4B4B4" stroke-width="0.649246"/>
<g filter="url(#filter2_i_127_1803)">
<path d="M165.193 20.5253C169.975 15.2774 178.233 15.2774 183.015 20.5253C186.186 24.0066 191.095 25.3219 195.583 23.8929C202.347 21.7387 209.499 25.868 211.016 32.8034C212.022 37.4042 215.616 40.9977 220.217 42.0039C227.152 43.5207 231.281 50.6727 229.127 57.4374C227.698 61.925 229.013 66.8337 232.495 70.0056C237.743 74.7869 237.743 83.0453 232.495 87.8266C229.013 90.9984 227.698 95.9072 229.127 100.395C231.281 107.159 227.152 114.311 220.217 115.828C215.616 116.834 212.022 120.428 211.016 125.029C209.499 131.964 202.347 136.093 195.583 133.939C191.095 132.51 186.186 133.826 183.015 137.307C178.233 142.555 169.975 142.555 165.193 137.307C162.022 133.826 157.113 132.51 152.625 133.939C145.861 136.093 138.709 131.964 137.192 125.029C136.186 120.428 132.592 116.834 127.991 115.828C121.056 114.311 116.927 107.159 119.081 100.395C120.51 95.9072 119.194 90.9984 115.713 87.8266C110.465 83.0453 110.465 74.7869 115.713 70.0056C119.194 66.8337 120.51 61.925 119.081 57.4374C116.927 50.6727 121.056 43.5207 127.991 42.0039C132.592 40.9977 136.186 37.4042 137.192 32.8034C138.709 25.868 145.861 21.7387 152.625 23.8929C157.113 25.3219 162.022 24.0066 165.193 20.5253Z" fill="black"/>
</g>
<path d="M165.433 20.7439C170.086 15.6373 178.122 15.6373 182.775 20.7439C186.032 24.3189 191.073 25.6697 195.681 24.2022C202.264 22.1061 209.223 26.1241 210.699 32.8728C211.732 37.5975 215.423 41.2877 220.147 42.321C226.896 43.797 230.914 50.7564 228.818 57.3389C227.35 61.9473 228.701 66.9883 232.276 70.2455C237.383 74.8981 237.383 82.9341 232.276 87.5867C228.701 90.8439 227.35 95.8849 228.818 100.493C230.914 107.076 226.896 114.035 220.147 115.511C215.423 116.544 211.732 120.235 210.699 124.959C209.223 131.708 202.264 135.726 195.681 133.63C191.073 132.163 186.032 133.513 182.775 137.088C178.122 142.195 170.086 142.195 165.433 137.088C162.176 133.513 157.135 132.163 152.527 133.63C145.944 135.726 138.985 131.708 137.509 124.959C136.476 120.235 132.785 116.544 128.061 115.511C121.312 114.035 117.294 107.076 119.39 100.493C120.858 95.8849 119.507 90.8439 115.932 87.5867C110.825 82.9341 110.825 74.8981 115.932 70.2455C119.507 66.9883 120.858 61.9473 119.39 57.3389C117.294 50.7564 121.312 43.797 128.061 42.321C132.785 41.2877 136.476 37.5975 137.509 32.8728C138.985 26.1241 145.944 22.1061 152.527 24.2022C157.135 25.6697 162.176 24.3189 165.433 20.7439Z" stroke="#FFD17A" stroke-width="0.649246"/>
<g filter="url(#filter3_i_127_1803)">
<path d="M240.29 165.913C247.715 149.815 270.596 149.815 278.021 165.913L281.578 173.624C284.604 180.185 290.822 184.703 297.997 185.553L306.43 186.553C324.035 188.641 331.105 210.401 318.089 222.438L311.855 228.203C306.55 233.109 304.175 240.419 305.583 247.506L307.238 255.834C310.693 273.223 292.183 286.672 276.713 278.012L269.303 273.865C262.998 270.335 255.313 270.335 249.008 273.865L241.598 278.012C226.128 286.672 207.618 273.223 211.073 255.834L212.728 247.506C214.136 240.419 211.761 233.109 206.456 228.203L200.222 222.438C187.205 210.401 194.276 188.641 211.881 186.553L220.314 185.553C227.489 184.703 233.707 180.185 236.733 173.624L240.29 165.913Z" fill="black"/>
</g>
<path d="M240.584 166.049C247.894 150.202 270.417 150.202 277.726 166.049L281.283 173.76C284.357 180.424 290.672 185.012 297.959 185.876L306.391 186.876C323.722 188.93 330.682 210.351 317.869 222.2L311.635 227.965C306.247 232.947 303.835 240.371 305.265 247.569L306.92 255.897C310.321 273.014 292.1 286.253 276.871 277.729L269.462 273.581C263.058 269.997 255.252 269.997 248.849 273.581L241.439 277.729C226.211 286.253 207.99 273.014 211.391 255.897L213.046 247.569C214.476 240.371 212.064 232.947 206.676 227.965L200.442 222.2C187.629 210.351 194.589 188.93 211.919 186.876L220.352 185.876C227.639 185.012 233.954 180.424 237.028 173.76L240.584 166.049Z" stroke="#2FF5CE" stroke-width="0.649246"/>
<g filter="url(#filter4_i_127_1803)">
<path d="M240.29 165.913C247.715 149.815 270.596 149.815 278.021 165.913L281.578 173.624C284.604 180.185 290.822 184.703 297.997 185.553L306.43 186.553C324.035 188.641 331.105 210.401 318.089 222.438L311.855 228.203C306.55 233.109 304.175 240.419 305.583 247.506L307.238 255.834C310.693 273.223 292.183 286.672 276.713 278.012L269.303 273.865C262.998 270.335 255.313 270.335 249.008 273.865L241.598 278.012C226.128 286.672 207.618 273.223 211.073 255.834L212.728 247.506C214.136 240.419 211.761 233.109 206.456 228.203L200.222 222.438C187.205 210.401 194.276 188.641 211.881 186.553L220.314 185.553C227.489 184.703 233.707 180.185 236.733 173.624L240.29 165.913Z" fill="black"/>
</g>
<path d="M240.584 166.049C247.894 150.202 270.417 150.202 277.726 166.049L281.283 173.76C284.357 180.424 290.672 185.012 297.959 185.876L306.391 186.876C323.722 188.93 330.682 210.351 317.869 222.2L311.635 227.965C306.247 232.947 303.835 240.371 305.265 247.569L306.92 255.897C310.321 273.014 292.1 286.253 276.871 277.729L269.462 273.581C263.058 269.997 255.252 269.997 248.849 273.581L241.439 277.729C226.211 286.253 207.99 273.014 211.391 255.897L213.046 247.569C214.476 240.371 212.064 232.947 206.676 227.965L200.442 222.2C187.629 210.351 194.589 188.93 211.919 186.876L220.352 185.876C227.639 185.012 233.954 180.424 237.028 173.76L240.584 166.049Z" stroke="#FFCE71" stroke-width="0.649246"/>
<g filter="url(#filter5_i_127_1803)">
<rect x="35.7275" y="147.087" width="110.372" height="110.372" rx="5.19397" transform="rotate(12.87 35.7275 147.087)" fill="black"/>
</g>
<rect x="35.9717" y="147.475" width="109.723" height="109.723" rx="4.86935" transform="rotate(12.87 35.9717 147.475)" stroke="#E573D9" stroke-width="0.649246"/>
<g filter="url(#filter6_i_127_1803)">
<circle cx="174.104" cy="374.323" r="59.0814" fill="black"/>
</g>
<circle cx="174.104" cy="374.323" r="58.7568" stroke="#B4B4B4" stroke-width="0.649246"/>
<g filter="url(#filter7_i_127_1803)">
<circle cx="385.109" cy="125.013" r="59.0814" fill="black"/>
</g>
<circle cx="385.109" cy="125.013" r="58.7568" stroke="#2FF5CE" stroke-width="0.649246"/>
<path d="M250.985 36.0657C153.53 50.3562 79.9251 118.886 74.0423 198.133C65.6763 310.834 149.113 440.115 328.644 394.953C511.982 348.834 464.168 115.708 374.326 112.065C305.194 109.262 227.23 204.629 273.826 303.039" stroke="white" stroke-width="1.29849"/>
<g filter="url(#filter8_b_127_1803)">
<circle cx="174.104" cy="363.935" r="59.0814" fill="white" fill-opacity="0.7"/>
<circle cx="174.104" cy="363.935" r="59.0814" fill="url(#paint0_linear_127_1803)"/>
<circle cx="174.104" cy="363.935" r="58.7568" stroke="white" stroke-width="0.649246"/>
</g>
<g filter="url(#filter9_b_127_1803)">
<circle cx="385.109" cy="114.625" r="59.0814" fill="#5BF6D8" fill-opacity="0.7"/>
<circle cx="385.109" cy="114.625" r="59.0814" fill="url(#paint1_linear_127_1803)"/>
<circle cx="385.109" cy="114.625" r="58.7568" stroke="#6CF7DC" stroke-width="0.649246"/>
</g>
<g filter="url(#filter10_b_127_1803)">
<path d="M442.17 216.428C444.104 212.675 449.471 212.675 451.404 216.428L462.066 237.123C463.228 239.379 465.85 240.465 468.266 239.691L490.439 232.597C494.461 231.31 498.256 235.105 496.969 239.127L489.875 261.3C489.101 263.716 490.187 266.338 492.443 267.5L513.138 278.162C516.891 280.095 516.891 285.462 513.138 287.396L492.443 298.058C490.187 299.22 489.101 301.842 489.875 304.258L496.969 326.431C498.256 330.453 494.461 334.247 490.439 332.961L468.266 325.866C465.85 325.093 463.228 326.179 462.066 328.434L451.404 349.129C449.471 352.883 444.104 352.883 442.17 349.129L431.508 328.434C430.346 326.179 427.724 325.093 425.308 325.866L403.135 332.961C399.113 334.247 395.319 330.453 396.605 326.431L403.7 304.258C404.473 301.842 403.387 299.22 401.132 298.058L380.437 287.396C376.683 285.462 376.683 280.095 380.437 278.162L401.132 267.5C403.387 266.338 404.473 263.716 403.7 261.3L396.605 239.127C395.319 235.105 399.113 231.31 403.135 232.597L425.308 239.691C427.724 240.465 430.346 239.379 431.508 237.123L442.17 216.428Z" fill="white" fill-opacity="0.7"/>
<path d="M442.17 216.428C444.104 212.675 449.471 212.675 451.404 216.428L462.066 237.123C463.228 239.379 465.85 240.465 468.266 239.691L490.439 232.597C494.461 231.31 498.256 235.105 496.969 239.127L489.875 261.3C489.101 263.716 490.187 266.338 492.443 267.5L513.138 278.162C516.891 280.095 516.891 285.462 513.138 287.396L492.443 298.058C490.187 299.22 489.101 301.842 489.875 304.258L496.969 326.431C498.256 330.453 494.461 334.247 490.439 332.961L468.266 325.866C465.85 325.093 463.228 326.179 462.066 328.434L451.404 349.129C449.471 352.883 444.104 352.883 442.17 349.129L431.508 328.434C430.346 326.179 427.724 325.093 425.308 325.866L403.135 332.961C399.113 334.247 395.319 330.453 396.605 326.431L403.7 304.258C404.473 301.842 403.387 299.22 401.132 298.058L380.437 287.396C376.683 285.462 376.683 280.095 380.437 278.162L401.132 267.5C403.387 266.338 404.473 263.716 403.7 261.3L396.605 239.127C395.319 235.105 399.113 231.31 403.135 232.597L425.308 239.691C427.724 240.465 430.346 239.379 431.508 237.123L442.17 216.428Z" fill="url(#paint2_linear_127_1803)"/>
<path d="M442.459 216.577C444.271 213.058 449.303 213.058 451.116 216.577L461.778 237.272C463.012 239.668 465.798 240.822 468.365 240.001L490.538 232.906C494.308 231.7 497.866 235.258 496.66 239.028L489.565 261.201C488.744 263.768 489.898 266.554 492.294 267.788L512.989 278.45C516.508 280.263 516.508 285.295 512.989 287.108L492.294 297.77C489.898 299.004 488.744 301.79 489.565 304.357L496.66 326.53C497.866 330.3 494.308 333.858 490.538 332.651L468.365 325.557C465.798 324.736 463.012 325.889 461.778 328.286L451.116 348.981C449.303 352.5 444.271 352.5 442.459 348.981L431.796 328.286C430.562 325.889 427.777 324.736 425.209 325.557L403.036 332.651C399.266 333.858 395.708 330.3 396.915 326.53L404.009 304.357C404.83 301.79 403.677 299.004 401.28 297.77L380.585 287.107C377.066 285.295 377.066 280.263 380.585 278.45L401.28 267.788C403.677 266.554 404.83 263.768 404.009 261.201L396.915 239.028C395.708 235.258 399.266 231.7 403.036 232.906L425.209 240.001C427.777 240.822 430.562 239.668 431.796 237.272L442.459 216.577Z" stroke="white" stroke-width="0.649246"/>
</g>
<g filter="url(#filter11_b_127_1803)">
<path d="M240.29 155.525C247.715 139.427 270.596 139.427 278.021 155.525L281.578 163.236C284.604 169.797 290.822 174.315 297.997 175.165L306.43 176.165C324.035 178.253 331.105 200.013 318.089 212.05L311.855 217.815C306.55 222.721 304.175 230.031 305.583 237.118L307.238 245.446C310.693 262.835 292.183 276.284 276.713 267.624L269.303 263.477C262.998 259.947 255.313 259.947 249.008 263.477L241.598 267.624C226.128 276.284 207.618 262.835 211.073 245.446L212.728 237.118C214.136 230.031 211.761 222.721 206.456 217.815L200.222 212.05C187.205 200.013 194.276 178.253 211.881 176.165L220.314 175.165C227.489 174.315 233.707 169.797 236.733 163.236L240.29 155.525Z" fill="#FCB836" fill-opacity="0.8"/>
<path d="M240.29 155.525C247.715 139.427 270.596 139.427 278.021 155.525L281.578 163.236C284.604 169.797 290.822 174.315 297.997 175.165L306.43 176.165C324.035 178.253 331.105 200.013 318.089 212.05L311.855 217.815C306.55 222.721 304.175 230.031 305.583 237.118L307.238 245.446C310.693 262.835 292.183 276.284 276.713 267.624L269.303 263.477C262.998 259.947 255.313 259.947 249.008 263.477L241.598 267.624C226.128 276.284 207.618 262.835 211.073 245.446L212.728 237.118C214.136 230.031 211.761 222.721 206.456 217.815L200.222 212.05C187.205 200.013 194.276 178.253 211.881 176.165L220.314 175.165C227.489 174.315 233.707 169.797 236.733 163.236L240.29 155.525Z" fill="url(#paint3_linear_127_1803)"/>
<path d="M240.584 155.661C247.894 139.814 270.417 139.814 277.726 155.661L281.283 163.372C284.357 170.036 290.672 174.624 297.959 175.488L306.391 176.488C323.722 178.542 330.682 199.963 317.869 211.812L311.635 217.577C306.247 222.559 303.835 229.983 305.265 237.181L306.92 245.51C310.321 262.627 292.1 275.865 276.871 267.341L269.462 263.193C263.058 259.609 255.252 259.609 248.849 263.193L241.439 267.341C226.211 275.865 207.99 262.627 211.391 245.51L213.046 237.181C214.476 229.983 212.064 222.559 206.676 217.577L200.442 211.812C187.629 199.963 194.589 178.542 211.919 176.488L220.352 175.488C227.639 174.624 233.954 170.036 237.028 163.372L240.584 155.661Z" stroke="#FFC85E" stroke-width="0.649246"/>
</g>
<g filter="url(#filter12_b_127_1803)">
<rect x="29.8843" y="135.4" width="110.372" height="110.372" rx="5.19397" transform="rotate(12.87 29.8843 135.4)" fill="#FA50E8" fill-opacity="0.7"/>
<rect x="29.8843" y="135.4" width="110.372" height="110.372" rx="5.19397" transform="rotate(12.87 29.8843 135.4)" fill="url(#paint4_linear_127_1803)"/>
<rect x="30.1284" y="135.789" width="109.723" height="109.723" rx="4.86935" transform="rotate(12.87 30.1284 135.789)" stroke="#FD8AF1" stroke-width="0.649246"/>
</g>
<g filter="url(#filter13_b_127_1803)">
<path d="M165.193 10.1373C169.975 4.88943 178.233 4.88943 183.015 10.1373C186.186 13.6186 191.095 14.9339 195.583 13.5049C202.347 11.3508 209.499 15.48 211.016 22.4155C212.022 27.0163 215.616 30.6098 220.217 31.616C227.152 33.1328 231.281 40.2848 229.127 47.0495C227.698 51.537 229.013 56.4458 232.495 59.6176C237.743 64.3989 237.743 72.6574 232.495 77.4387C229.013 80.6105 227.698 85.5193 229.127 90.0068C231.281 96.7715 227.152 103.924 220.217 105.44C215.616 106.447 212.022 110.04 211.016 114.641C209.499 121.576 202.347 125.706 195.583 123.551C191.095 122.122 186.186 123.438 183.015 126.919C178.233 132.167 169.975 132.167 165.193 126.919C162.022 123.438 157.113 122.122 152.625 123.551C145.861 125.706 138.709 121.576 137.192 114.641C136.186 110.04 132.592 106.447 127.991 105.44C121.056 103.924 116.927 96.7715 119.081 90.0068C120.51 85.5193 119.194 80.6105 115.713 77.4387C110.465 72.6574 110.465 64.3989 115.713 59.6176C119.194 56.4458 120.51 51.537 119.081 47.0495C116.927 40.2848 121.056 33.1328 127.991 31.616C132.592 30.6098 136.186 27.0163 137.192 22.4155C138.709 15.48 145.861 11.3508 152.625 13.5049C157.113 14.9339 162.022 13.6186 165.193 10.1373Z" fill="#FCB836" fill-opacity="0.8"/>
<path d="M165.193 10.1373C169.975 4.88943 178.233 4.88943 183.015 10.1373C186.186 13.6186 191.095 14.9339 195.583 13.5049C202.347 11.3508 209.499 15.48 211.016 22.4155C212.022 27.0163 215.616 30.6098 220.217 31.616C227.152 33.1328 231.281 40.2848 229.127 47.0495C227.698 51.537 229.013 56.4458 232.495 59.6176C237.743 64.3989 237.743 72.6574 232.495 77.4387C229.013 80.6105 227.698 85.5193 229.127 90.0068C231.281 96.7715 227.152 103.924 220.217 105.44C215.616 106.447 212.022 110.04 211.016 114.641C209.499 121.576 202.347 125.706 195.583 123.551C191.095 122.122 186.186 123.438 183.015 126.919C178.233 132.167 169.975 132.167 165.193 126.919C162.022 123.438 157.113 122.122 152.625 123.551C145.861 125.706 138.709 121.576 137.192 114.641C136.186 110.04 132.592 106.447 127.991 105.44C121.056 103.924 116.927 96.7715 119.081 90.0068C120.51 85.5193 119.194 80.6105 115.713 77.4387C110.465 72.6574 110.465 64.3989 115.713 59.6176C119.194 56.4458 120.51 51.537 119.081 47.0495C116.927 40.2848 121.056 33.1328 127.991 31.616C132.592 30.6098 136.186 27.0163 137.192 22.4155C138.709 15.48 145.861 11.3508 152.625 13.5049C157.113 14.9339 162.022 13.6186 165.193 10.1373Z" fill="url(#paint5_linear_127_1803)"/>
<path d="M165.433 10.3559C170.086 5.24939 178.122 5.24939 182.775 10.3559C186.032 13.931 191.073 15.2817 195.681 13.8143C202.264 11.7181 209.223 15.7361 210.699 22.4848C211.732 27.2095 215.423 30.8998 220.147 31.9331C226.896 33.4091 230.914 40.3685 228.818 46.951C227.35 51.5594 228.701 56.6003 232.276 59.8576C237.383 64.5101 237.383 72.5462 232.276 77.1987C228.701 80.456 227.35 85.4969 228.818 90.1053C230.914 96.6878 226.896 103.647 220.147 105.123C215.423 106.157 211.732 109.847 210.699 114.571C209.223 121.32 202.264 125.338 195.681 123.242C191.073 121.775 186.032 123.125 182.775 126.7C178.122 131.807 170.086 131.807 165.433 126.7C162.176 123.125 157.135 121.775 152.527 123.242C145.944 125.338 138.985 121.32 137.509 114.571C136.476 109.847 132.785 106.157 128.061 105.123C121.312 103.647 117.294 96.6878 119.39 90.1053C120.858 85.4969 119.507 80.456 115.932 77.1987C110.825 72.5462 110.825 64.5101 115.932 59.8576C119.507 56.6003 120.858 51.5594 119.39 46.951C117.294 40.3685 121.312 33.4091 128.061 31.9331C132.785 30.8998 136.476 27.2095 137.509 22.4848C138.985 15.7361 145.944 11.7181 152.527 13.8143C157.135 15.2817 162.176 13.931 165.433 10.3559Z" stroke="#FFD27B" stroke-width="0.649246"/>
</g>
<g filter="url(#filter14_b_127_1803)">
<path d="M309.581 326.631C310.428 322.724 315.187 321.198 318.148 323.885L399.334 397.574C402.295 400.262 401.236 405.146 397.429 406.367L293.019 439.831C289.211 441.052 285.511 437.693 286.358 433.785L309.581 326.631Z" fill="#8658EA" fill-opacity="0.7"/>
<path d="M309.581 326.631C310.428 322.724 315.187 321.198 318.148 323.885L399.334 397.574C402.295 400.262 401.236 405.146 397.429 406.367L293.019 439.831C289.211 441.052 285.511 437.693 286.358 433.785L309.581 326.631Z" fill="url(#paint6_linear_127_1803)"/>
<path d="M309.898 326.7C310.692 323.037 315.154 321.607 317.93 324.126L399.116 397.815C401.891 400.334 400.899 404.913 397.329 406.057L292.92 439.522C289.35 440.666 285.881 437.517 286.675 433.854L309.898 326.7Z" stroke="#8658EA" stroke-width="0.649246"/>
</g>
<circle cx="251.7" cy="35.5" r="4" fill="white"/>
<circle cx="273.3" cy="302.7" r="4" fill="white"/>
<defs>
<filter id="filter0_i_127_1803" x="289.482" y="332.921" width="114.804" height="117.552" filterUnits="userSpaceOnUse" color-interpolation-filters="sRGB">
<feFlood flood-opacity="0" result="BackgroundImageFix"/>
<feBlend mode="normal" in="SourceGraphic" in2="BackgroundImageFix" result="shape"/>
<feColorMatrix in="SourceAlpha" type="matrix" values="0 0 0 0 0 0 0 0 0 0 0 0 0 0 0 0 0 0 127 0" result="hardAlpha"/>
<feOffset/>
<feGaussianBlur stdDeviation="41.5518"/>
<feComposite in2="hardAlpha" operator="arithmetic" k2="-1" k3="1"/>
<feColorMatrix type="matrix" values="0 0 0 0 0.435071 0 0 0 0 0.217969 0 0 0 0 0.907031 0 0 0 1 0"/>
<feBlend mode="normal" in2="shape" result="effect1_innerShadow_127_1803"/>
</filter>
<filter id="filter1_i_127_1803" x="377.621" y="224.651" width="138.332" height="138.331" filterUnits="userSpaceOnUse" color-interpolation-filters="sRGB">
<feFlood flood-opacity="0" result="BackgroundImageFix"/>
<feBlend mode="normal" in="SourceGraphic" in2="BackgroundImageFix" result="shape"/>
<feColorMatrix in="SourceAlpha" type="matrix" values="0 0 0 0 0 0 0 0 0 0 0 0 0 0 0 0 0 0 127 0" result="hardAlpha"/>
<feOffset/>
<feGaussianBlur stdDeviation="41.5518"/>
<feComposite in2="hardAlpha" operator="arithmetic" k2="-1" k3="1"/>
<feColorMatrix type="matrix" values="0 0 0 0 1 0 0 0 0 1 0 0 0 0 1 0 0 0 0.7 0"/>
<feBlend mode="normal" in2="shape" result="effect1_innerShadow_127_1803"/>
</filter>
<filter id="filter2_i_127_1803" x="111.777" y="16.5894" width="124.654" height="124.653" filterUnits="userSpaceOnUse" color-interpolation-filters="sRGB">
<feFlood flood-opacity="0" result="BackgroundImageFix"/>
<feBlend mode="normal" in="SourceGraphic" in2="BackgroundImageFix" result="shape"/>
<feColorMatrix in="SourceAlpha" type="matrix" values="0 0 0 0 0 0 0 0 0 0 0 0 0 0 0 0 0 0 127 0" result="hardAlpha"/>
<feOffset/>
<feGaussianBlur stdDeviation="41.5518"/>
<feComposite in2="hardAlpha" operator="arithmetic" k2="-1" k3="1"/>
<feColorMatrix type="matrix" values="0 0 0 0 0.988235 0 0 0 0 0.721569 0 0 0 0 0.211765 0 0 0 1 0"/>
<feBlend mode="normal" in2="shape" result="effect1_innerShadow_127_1803"/>
</filter>
<filter id="filter3_i_127_1803" x="193.526" y="153.839" width="131.259" height="126.873" filterUnits="userSpaceOnUse" color-interpolation-filters="sRGB">
<feFlood flood-opacity="0" result="BackgroundImageFix"/>
<feBlend mode="normal" in="SourceGraphic" in2="BackgroundImageFix" result="shape"/>
<feColorMatrix in="SourceAlpha" type="matrix" values="0 0 0 0 0 0 0 0 0 0 0 0 0 0 0 0 0 0 127 0" result="hardAlpha"/>
<feOffset/>
<feGaussianBlur stdDeviation="41.5518"/>
<feComposite in2="hardAlpha" operator="arithmetic" k2="-1" k3="1"/>
<feColorMatrix type="matrix" values="0 0 0 0 0.0640625 0 0 0 0 0.854167 0 0 0 0 0.698453 0 0 0 1 0"/>
<feBlend mode="normal" in2="shape" result="effect1_innerShadow_127_1803"/>
</filter>
<filter id="filter4_i_127_1803" x="193.526" y="153.839" width="131.259" height="126.873" filterUnits="userSpaceOnUse" color-interpolation-filters="sRGB">
<feFlood flood-opacity="0" result="BackgroundImageFix"/>
<feBlend mode="normal" in="SourceGraphic" in2="BackgroundImageFix" result="shape"/>
<feColorMatrix in="SourceAlpha" type="matrix" values="0 0 0 0 0 0 0 0 0 0 0 0 0 0 0 0 0 0 127 0" result="hardAlpha"/>
<feOffset/>
<feGaussianBlur stdDeviation="51.9397"/>
<feComposite in2="hardAlpha" operator="arithmetic" k2="-1" k3="1"/>
<feColorMatrix type="matrix" values="0 0 0 0 0.988235 0 0 0 0 0.721569 0 0 0 0 0.211765 0 0 0 1 0"/>
<feBlend mode="normal" in2="shape" result="effect1_innerShadow_127_1803"/>
</filter>
<filter id="filter5_i_127_1803" x="12.1687" y="148.112" width="130.133" height="130.133" filterUnits="userSpaceOnUse" color-interpolation-filters="sRGB">
<feFlood flood-opacity="0" result="BackgroundImageFix"/>
<feBlend mode="normal" in="SourceGraphic" in2="BackgroundImageFix" result="shape"/>
<feColorMatrix in="SourceAlpha" type="matrix" values="0 0 0 0 0 0 0 0 0 0 0 0 0 0 0 0 0 0 127 0" result="hardAlpha"/>
<feOffset/>
<feGaussianBlur stdDeviation="41.5518"/>
<feComposite in2="hardAlpha" operator="arithmetic" k2="-1" k3="1"/>
<feColorMatrix type="matrix" values="0 0 0 0 0.980392 0 0 0 0 0.313726 0 0 0 0 0.909804 0 0 0 1 0"/>
<feBlend mode="normal" in2="shape" result="effect1_innerShadow_127_1803"/>
</filter>
<filter id="filter6_i_127_1803" x="115.023" y="315.242" width="118.163" height="118.163" filterUnits="userSpaceOnUse" color-interpolation-filters="sRGB">
<feFlood flood-opacity="0" result="BackgroundImageFix"/>
<feBlend mode="normal" in="SourceGraphic" in2="BackgroundImageFix" result="shape"/>
<feColorMatrix in="SourceAlpha" type="matrix" values="0 0 0 0 0 0 0 0 0 0 0 0 0 0 0 0 0 0 127 0" result="hardAlpha"/>
<feOffset/>
<feGaussianBlur stdDeviation="41.5518"/>
<feComposite in2="hardAlpha" operator="arithmetic" k2="-1" k3="1"/>
<feColorMatrix type="matrix" values="0 0 0 0 1 0 0 0 0 1 0 0 0 0 1 0 0 0 0.7 0"/>
<feBlend mode="normal" in2="shape" result="effect1_innerShadow_127_1803"/>
</filter>
<filter id="filter7_i_127_1803" x="326.028" y="65.9313" width="118.163" height="118.163" filterUnits="userSpaceOnUse" color-interpolation-filters="sRGB">
<feFlood flood-opacity="0" result="BackgroundImageFix"/>
<feBlend mode="normal" in="SourceGraphic" in2="BackgroundImageFix" result="shape"/>
<feColorMatrix in="SourceAlpha" type="matrix" values="0 0 0 0 0 0 0 0 0 0 0 0 0 0 0 0 0 0 127 0" result="hardAlpha"/>
<feOffset/>
<feGaussianBlur stdDeviation="41.5518"/>
<feComposite in2="hardAlpha" operator="arithmetic" k2="-1" k3="1"/>
<feColorMatrix type="matrix" values="0 0 0 0 0.0640625 0 0 0 0 0.854167 0 0 0 0 0.698453 0 0 0 1 0"/>
<feBlend mode="normal" in2="shape" result="effect1_innerShadow_127_1803"/>
</filter>
<filter id="filter8_b_127_1803" x="109.829" y="299.66" width="128.551" height="128.551" filterUnits="userSpaceOnUse" color-interpolation-filters="sRGB">
<feFlood flood-opacity="0" result="BackgroundImageFix"/>
<feGaussianBlur in="BackgroundImageFix" stdDeviation="2.59698"/>
<feComposite in2="SourceAlpha" operator="in" result="effect1_backgroundBlur_127_1803"/>
<feBlend mode="normal" in="SourceGraphic" in2="effect1_backgroundBlur_127_1803" result="shape"/>
</filter>
<filter id="filter9_b_127_1803" x="320.834" y="50.3492" width="128.551" height="128.551" filterUnits="userSpaceOnUse" color-interpolation-filters="sRGB">
<feFlood flood-opacity="0" result="BackgroundImageFix"/>
<feGaussianBlur in="BackgroundImageFix" stdDeviation="2.59698"/>
<feComposite in2="SourceAlpha" operator="in" result="effect1_backgroundBlur_127_1803"/>
<feBlend mode="normal" in="SourceGraphic" in2="effect1_backgroundBlur_127_1803" result="shape"/>
</filter>
<filter id="filter10_b_127_1803" x="372.427" y="208.419" width="148.719" height="148.719" filterUnits="userSpaceOnUse" color-interpolation-filters="sRGB">
<feFlood flood-opacity="0" result="BackgroundImageFix"/>
<feGaussianBlur in="BackgroundImageFix" stdDeviation="2.59698"/>
<feComposite in2="SourceAlpha" operator="in" result="effect1_backgroundBlur_127_1803"/>
<feBlend mode="normal" in="SourceGraphic" in2="effect1_backgroundBlur_127_1803" result="shape"/>
</filter>
<filter id="filter11_b_127_1803" x="188.332" y="138.257" width="141.646" height="137.261" filterUnits="userSpaceOnUse" color-interpolation-filters="sRGB">
<feFlood flood-opacity="0" result="BackgroundImageFix"/>
<feGaussianBlur in="BackgroundImageFix" stdDeviation="2.59698"/>
<feComposite in2="SourceAlpha" operator="in" result="effect1_backgroundBlur_127_1803"/>
<feBlend mode="normal" in="SourceGraphic" in2="effect1_backgroundBlur_127_1803" result="shape"/>
</filter>
<filter id="filter12_b_127_1803" x="1.13147" y="131.232" width="140.521" height="140.521" filterUnits="userSpaceOnUse" color-interpolation-filters="sRGB">
<feFlood flood-opacity="0" result="BackgroundImageFix"/>
<feGaussianBlur in="BackgroundImageFix" stdDeviation="2.59698"/>
<feComposite in2="SourceAlpha" operator="in" result="effect1_backgroundBlur_127_1803"/>
<feBlend mode="normal" in="SourceGraphic" in2="effect1_backgroundBlur_127_1803" result="shape"/>
</filter>
<filter id="filter13_b_127_1803" x="106.583" y="1.00745" width="135.042" height="135.041" filterUnits="userSpaceOnUse" color-interpolation-filters="sRGB">
<feFlood flood-opacity="0" result="BackgroundImageFix"/>
<feGaussianBlur in="BackgroundImageFix" stdDeviation="2.59698"/>
<feComposite in2="SourceAlpha" operator="in" result="effect1_backgroundBlur_127_1803"/>
<feBlend mode="normal" in="SourceGraphic" in2="effect1_backgroundBlur_127_1803" result="shape"/>
</filter>
<filter id="filter14_b_127_1803" x="281.041" y="317.339" width="125.192" height="127.94" filterUnits="userSpaceOnUse" color-interpolation-filters="sRGB">
<feFlood flood-opacity="0" result="BackgroundImageFix"/>
<feGaussianBlur in="BackgroundImageFix" stdDeviation="2.59698"/>
<feComposite in2="SourceAlpha" operator="in" result="effect1_backgroundBlur_127_1803"/>
<feBlend mode="normal" in="SourceGraphic" in2="effect1_backgroundBlur_127_1803" result="shape"/>
</filter>
<linearGradient id="paint0_linear_127_1803" x1="174.104" y1="304.854" x2="174.104" y2="423.016" gradientUnits="userSpaceOnUse">
<stop stop-color="white"/>
<stop offset="1" stop-color="white" stop-opacity="0"/>
</linearGradient>
<linearGradient id="paint1_linear_127_1803" x1="385.109" y1="55.5432" x2="385.109" y2="173.706" gradientUnits="userSpaceOnUse">
<stop stop-color="#10DAB2"/>
<stop offset="1" stop-color="#10DAB2" stop-opacity="0"/>
</linearGradient>
<linearGradient id="paint2_linear_127_1803" x1="446.787" y1="207.466" x2="446.787" y2="358.091" gradientUnits="userSpaceOnUse">
<stop stop-color="white"/>
<stop offset="1" stop-color="white" stop-opacity="0"/>
</linearGradient>
<linearGradient id="paint3_linear_127_1803" x1="259.155" y1="114.625" x2="259.155" y2="308.1" gradientUnits="userSpaceOnUse">
<stop stop-color="#FCB836"/>
<stop offset="1" stop-color="#FCB836" stop-opacity="0"/>
</linearGradient>
<linearGradient id="paint4_linear_127_1803" x1="85.0702" y1="135.4" x2="85.0702" y2="245.772" gradientUnits="userSpaceOnUse">
<stop stop-color="#FB5EEA"/>
<stop offset="1" stop-color="#FD8AF1" stop-opacity="0"/>
</linearGradient>
<linearGradient id="paint5_linear_127_1803" x1="174.104" y1="0.3573" x2="174.104" y2="136.699" gradientUnits="userSpaceOnUse">
<stop stop-color="#FCB836"/>
<stop offset="1" stop-color="#FCB836" stop-opacity="0"/>
</linearGradient>
<linearGradient id="paint6_linear_127_1803" x1="311.487" y1="317.839" x2="345.224" y2="423.099" gradientUnits="userSpaceOnUse">
<stop stop-color="#8658EA"/>
<stop offset="1" stop-color="#8658EA" stop-opacity="0"/>
</linearGradient>
</defs>
</svg>
