<svg viewBox="0 0 72 72" fill="none" xmlns="http://www.w3.org/2000/svg">
<path d="M34.9944 3.82886C35.266 2.79472 36.734 2.79473 37.0056 3.82886L41.4384 20.7069C41.6132 21.3722 42.3743 21.6875 42.9683 21.3406L58.0374 12.5405C58.9607 12.0013 59.9987 13.0393 59.4595 13.9626L50.6594 29.0317C50.3125 29.6257 50.6278 30.3868 51.2931 30.5616L68.1711 34.9944C69.2053 35.266 69.2053 36.734 68.1711 37.0056L51.2931 41.4384C50.6278 41.6132 50.3125 42.3743 50.6594 42.9683L59.4595 58.0374C59.9987 58.9607 58.9607 59.9987 58.0374 59.4595L42.9683 50.6594C42.3743 50.3125 41.6132 50.6278 41.4384 51.2931L37.0056 68.1711C36.734 69.2053 35.266 69.2053 34.9944 68.1711L30.5616 51.2931C30.3868 50.6278 29.6257 50.3125 29.0317 50.6594L13.9626 59.4595C13.0393 59.9987 12.0013 58.9607 12.5405 58.0374L21.3406 42.9683C21.6875 42.3743 21.3722 41.6132 20.7069 41.4384L3.82886 37.0056C2.79472 36.734 2.79473 35.266 3.82886 34.9944L20.7069 30.5616C21.3722 30.3868 21.6875 29.6257 21.3406 29.0317L12.5405 13.9626C12.0013 13.0393 13.0393 12.0013 13.9626 12.5405L29.0317 21.3406C29.6257 21.6875 30.3868 21.3722 30.5616 20.7069L34.9944 3.82886Z" fill="#FCB836"/>
</svg>
