<svg viewBox="0 0 72 72" fill="none" xmlns="http://www.w3.org/2000/svg">
<path d="M22.5683 27.2933C24.1391 25.5689 26.8609 25.5689 28.4317 27.2933C29.4733 28.4368 31.0897 28.8693 32.5661 28.3991C34.7882 27.6913 37.1425 29.0575 37.6391 31.3285C37.9692 32.8383 39.1536 34.0268 40.6686 34.3582C42.9493 34.8571 44.3032 37.2129 43.5973 39.4303C43.1278 40.9052 43.5582 42.5251 44.7041 43.5694C46.432 45.144 46.432 47.856 44.7041 49.4306C43.5582 50.4749 43.1278 52.0948 43.5973 53.5697C44.3032 55.7871 42.9493 58.1429 40.6686 58.6418C39.1536 58.9732 37.9692 60.1617 37.6391 61.6715C37.1425 63.9425 34.7882 65.3087 32.5661 64.6009C31.0897 64.1307 29.4733 64.5631 28.4317 65.7067C26.8609 67.4311 24.1391 67.4311 22.5683 65.7067C21.5267 64.5631 19.9103 64.1307 18.4339 64.6009C16.2118 65.3087 13.8575 63.9425 13.3609 61.6715C13.0308 60.1617 11.8464 58.9732 10.3314 58.6418C8.05067 58.1429 6.69677 55.7871 7.40272 53.5697C7.87225 52.0948 7.44181 50.4749 6.29587 49.4306C4.56804 47.856 4.56804 45.144 6.29587 43.5694C7.44181 42.5251 7.87225 40.9052 7.40272 39.4303C6.69677 37.2129 8.05067 34.8571 10.3314 34.3582C11.8464 34.0268 13.0308 32.8383 13.3609 31.3285C13.8575 29.0575 16.2118 27.6913 18.4339 28.3991C19.9103 28.8693 21.5267 28.4368 22.5683 27.2933Z" fill="#3685FC"/>
<path d="M43.5683 6.29331C45.1391 4.5689 47.8609 4.5689 49.4317 6.2933C50.4733 7.43685 52.0897 7.86935 53.5661 7.39909C55.7882 6.69132 58.1425 8.05754 58.6391 10.3285C58.9692 11.8383 60.1536 13.0268 61.6686 13.3582C63.9493 13.8571 65.3032 16.2129 64.5973 18.4303C64.1278 19.9052 64.5582 21.5251 65.7041 22.5694C67.432 24.144 67.432 26.856 65.7041 28.4306C64.5582 29.4749 64.1278 31.0948 64.5973 32.5697C65.3032 34.7871 63.9493 37.1429 61.6686 37.6418C60.1536 37.9732 58.9692 39.1617 58.6391 40.6715C58.1425 42.9425 55.7882 44.3087 53.5661 43.6009C52.0897 43.1307 50.4733 43.5631 49.4317 44.7067C47.8609 46.4311 45.1391 46.4311 43.5683 44.7067C42.5267 43.5631 40.9103 43.1307 39.4339 43.6009C37.2118 44.3087 34.8575 42.9425 34.3609 40.6715C34.0308 39.1617 32.8464 37.9732 31.3314 37.6418C29.0507 37.1429 27.6968 34.7871 28.4027 32.5697C28.8723 31.0948 28.4418 29.4749 27.2959 28.4306C25.568 26.856 25.568 24.144 27.2959 22.5694C28.4418 21.5251 28.8723 19.9052 28.4027 18.4303C27.6968 16.2129 29.0507 13.8571 31.3314 13.3582C32.8464 13.0268 34.0308 11.8383 34.3609 10.3285C34.8575 8.05754 37.2118 6.69132 39.4339 7.39909C40.9103 7.86935 42.5267 7.43685 43.5683 6.29331Z" fill="#73A9FA"/>
<path fill-rule="evenodd" clip-rule="evenodd" d="M45.9638 45.964C45.0766 45.8441 44.2226 45.425 43.5684 44.7068C42.5267 43.5632 40.9103 43.1307 39.4339 43.601C37.2118 44.3088 34.8575 42.9425 34.361 40.6716C34.0308 39.1617 32.8465 37.9733 31.3315 37.6419C29.0507 37.1429 27.6968 34.7872 28.4028 32.5697C28.8723 31.0949 28.4419 29.475 27.2959 28.4307C26.5764 27.775 26.1565 26.922 26.0363 26.0361C26.9235 26.1561 27.7775 26.5751 28.4317 27.2934C29.4734 28.4369 31.0898 28.8694 32.5662 28.3992C34.7883 27.6914 37.1426 29.0576 37.6391 31.3285C37.9693 32.8384 39.1536 34.0269 40.6686 34.3583C42.9494 34.8572 44.3033 37.213 43.5973 39.4304C43.1278 40.9052 43.5582 42.5252 44.7042 43.5695C45.4237 44.2252 45.8436 45.0781 45.9638 45.964Z" fill="#5395F9"/>
</svg>
